<svg width="512" height="512" xmlns="http://www.w3.org/2000/svg">
 <title>rewind1-glyph</title>

 <g>
  <title>background</title>
  <rect fill="none" id="canvas_background" height="402" width="582" y="-1" x="-1"/>
 </g>
 <g>
  <title>Layer 1</title>
  <path transform="rotate(180 357.8914794921875,256.0050048828125) " id="svg_1" fill="#434040" d="m488.67,452.31c13.09,0 23.33,-10.63 23.33,-24.2l0,-344.22c0,-13.57 -10.25,-24.19 -23.34,-24.19a25.26,25.26 0 0 0 -12.58,3.46l-259.89,172.1a23.53,23.53 0 0 0 0,41.47l259.9,172.11a25.24,25.24 0 0 0 12.58,3.46l0,0.01z"/>
  <path transform="rotate(180 154.10649108886716,256.0050048828125) " id="svg_2" fill="#434040" d="m284.88,452.31c13.09,0 23.33,-10.63 23.33,-24.2l0,-344.22c0,-13.57 -10.25,-24.19 -23.34,-24.19a25.26,25.26 0 0 0 -12.58,3.46l-259.88,172.1a23.53,23.53 0 0 0 0,41.47l259.89,172.12a25.24,25.24 0 0 0 12.58,3.46z"/>
 </g>
</svg>