<svg width="487.23" height="487.23" xmlns="http://www.w3.org/2000/svg">

 <g>
  <title>background</title>
  <rect fill="none" id="canvas_background" height="402" width="582" y="-1" x="-1"/>
 </g>
 <g>
  <title>Layer 1</title>
  <g id="svg_1">
   <g id="svg_2">
    <path id="svg_3" d="m55.323,203.641c15.664,0 29.813,-9.405 35.872,-23.854c25.017,-59.604 83.842,-101.61 152.42,-101.61c37.797,0 72.449,12.955 100.23,34.442l-21.775,3.371c-7.438,1.153 -13.224,7.054 -14.232,14.512c-1.01,7.454 3.008,14.686 9.867,17.768l119.746,53.872c5.249,2.357 11.33,1.904 16.168,-1.205c4.83,-3.114 7.764,-8.458 7.796,-14.208l0.621,-131.943c0.042,-7.506 -4.851,-14.144 -12.024,-16.332c-7.185,-2.188 -14.947,0.589 -19.104,6.837l-16.505,24.805c-44.005,-43.318 -104.303,-70.096 -170.788,-70.096c-100.809,0 -187.482,61.562 -224.448,149.06c-5.134,12.128 -3.84,26.015 3.429,36.987c7.269,10.976 19.556,17.594 32.727,17.594z"/>
    <path id="svg_4" d="m464.635,301.184c-7.27,-10.977 -19.558,-17.594 -32.728,-17.594c-15.664,0 -29.813,9.405 -35.872,23.854c-25.018,59.604 -83.843,101.61 -152.42,101.61c-37.798,0 -72.45,-12.955 -100.232,-34.442l21.776,-3.369c7.437,-1.153 13.223,-7.055 14.233,-14.514c1.009,-7.453 -3.008,-14.686 -9.867,-17.768l-119.746,-53.872c-5.25,-2.356 -11.33,-1.905 -16.169,1.205c-4.829,3.114 -7.764,8.458 -7.795,14.207l-0.622,131.943c-0.042,7.506 4.85,14.144 12.024,16.332c7.185,2.188 14.948,-0.59 19.104,-6.839l16.505,-24.805c44.004,43.32 104.303,70.098 170.788,70.098c100.811,0 187.481,-61.561 224.446,-149.059c5.137,-12.128 3.843,-26.014 -3.425,-36.987z"/>
   </g>
  </g>
  <g id="svg_5"/>
  <g id="svg_6"/>
  <g id="svg_7"/>
  <g id="svg_8"/>
  <g id="svg_9"/>
  <g id="svg_10"/>
  <g id="svg_11"/>
  <g id="svg_12"/>
  <g id="svg_13"/>
  <g id="svg_14"/>
  <g id="svg_15"/>
  <g id="svg_16"/>
  <g id="svg_17"/>
  <g id="svg_18"/>
  <g id="svg_19"/>
  <text style="cursor: move;" font-weight="bold" stroke="#000" transform="matrix(7.201015557244318,0,0,6.183672052990687,-1448.7641497544469,-1125.377225274141) " xml:space="preserve" text-anchor="start" font-family="'Simonetta', serif" font-size="39" id="svg_20" y="233.257127" x="224.643258" fill-opacity="null" stroke-opacity="null" stroke-width="0" fill="#000000">1</text>
 </g>
</svg>